<svg xmlns="http://www.w3.org/2000/svg" xmlns:xlink="http://www.w3.org/1999/xlink" width="161.595" height="90" viewBox="0 0 161.595 90"><defs><clipPath id="a"><rect width="161.595" height="90" fill="none"/></clipPath></defs><g clip-path="url(#a)"><path d="M162.4,16.956h0A17.054,17.054,0,0,0,146.9,0l-1.524.994L143.848,0a17.036,17.036,0,0,0-15.5,16.956h0c0,10.227,8.515,16.046,13.672,16.734l.021-.753c-.712-.25-.962-.792-.962-1.658,0-.422,0-1.99,0-13.146H148.1c1.733,0,2.331.626,2.479,2.215l.438-.156V14.946l-.438-.157c-.141,1.516-.694,2.112-2.25,2.164v-3.8h4.226a7.182,7.182,0,0,1,5.5,2.989l.277-.259-2.009-4.257a11.543,11.543,0,0,1-2.424.354H141.077V7.777h5.541a7.094,7.094,0,0,1,5.5,2.9l.277-.258-2.009-4.166a11.505,11.505,0,0,1-2.424.354h-11.97l-.157.483c1.489.139,2.706.878,2.706,2.207V11.9a11.874,11.874,0,0,1-1.585-.294l-1.962,4.3.277.259a8.581,8.581,0,0,1,3.271-2.6v16.44c0,.74-.357,1.175-1.166.843a16,16,0,0,1-1.73-1.159,16.275,16.275,0,0,1-6.311-12.743,15.932,15.932,0,0,1,11.457-15.4,3.838,3.838,0,0,1,1.235-.231c1.324,0,2.1.5,3.154,1.789h.382a3.752,3.752,0,0,1,3.18-1.781,3.8,3.8,0,0,1,1.209.222,15.931,15.931,0,0,1,11.457,15.4,16.134,16.134,0,0,1-5.327,11.92c-1.446,1.174-3.61,3.052-6.452,3.545-.787.175-1.3-.162-1.3-.9V19.353H145.8V32.07c0,.788-.214,1.1-.972,1.247v.663l.272,0a21.657,21.657,0,0,0,5.827-.839A17.322,17.322,0,0,0,162.4,16.956m-21.319-3.8h4.445a.273.273,0,0,1,.273.273v3.254a.273.273,0,0,1-.273.273h-4.445Z" transform="translate(-65.235)" fill="currentColor"/><path d="M94.235,96.2l-1.012,1.337h4.4L96.6,96.183V91.719h5.028l1.616,1.244V89.7l-1.6,1.23H96.6V87.374h6.962L104.708,89l2.045-2.415H93.218l1.018,1.339Z" transform="translate(-47.38 -44.007)" fill="currentColor"/><path d="M135.549,97.535h4.4l-1.022-1.349V87.935l1.022-1.348h-4.4l1.011,1.335V96.2Z" transform="translate(-68.895 -44.01)" fill="currentColor"/><path d="M210.338,95.887,209.07,97.5h3.5l-1.486-1.64V88.424l9.992,9.069h1.552V88.2l1.223-1.62h-3.389l1.409,1.639.081,6.82-8.488-7.667.371-.793H209.06l1.278,1.189Z" transform="translate(-106.259 -44.008)" fill="currentColor"/><path d="M12.892,121.968H3.733a9.112,9.112,0,0,1-2.24-.33L0,125.342l.278.223a6.112,6.112,0,0,1,4.337-2.587H6.98v10.891c-.016,1.263-.983,1.977-2.339,2.1l.135.416h6.974l.135-.416c-1.364-.126-2.334-.848-2.34-2.125v-10.87H11.88a6.063,6.063,0,0,1,4.405,2.591l.279-.223-1.492-3.7a9.3,9.3,0,0,1-2.179.326" transform="translate(0 -61.825)" fill="currentColor"/><path d="M66.332,122.726l-.135-.417H59.223l-.136.417c1.357.125,2.323.84,2.341,2.1v2.955H52.2V124.85c.006-1.276.977-2,2.34-2.124l-.134-.417H47.432l-.134.417c1.355.125,2.322.84,2.339,2.1v9.379c-.016,1.264-.983,1.979-2.339,2.1l.134.417h6.975l.134-.417c-1.364-.125-2.334-.847-2.34-2.124v-5.317h9.227v5.338c-.018,1.263-.983,1.977-2.341,2.1l.136.417H66.2l.135-.417c-1.365-.125-2.335-.847-2.341-2.124V124.85c.006-1.276.976-2,2.341-2.124" transform="translate(-24.04 -62.166)" fill="currentColor"/><path d="M162.183,124.936l0,.01c-.265-1.243.476-2.093,1.844-2.22l-.135-.416H159.4c-.356,1.3-3.387,8.34-4.639,11.23l-5.392-11.23h-4.044l-.134.416a2.63,2.63,0,0,1,2.008,1.005c-1.992,9.693-2.051,12.319-4.965,12.582l.135.417h6.008l.134-.417c-1.659-.155-2.31-.525-2.31-1.818,0-1.513.659-4.3,1.834-9.469l5.811,11.711h.521s3.681-8.351,5.351-11.66c1.308,5.584,2.279,8.345,2.279,9.736,0,1.193-.552,1.384-1.792,1.5l.135.417h6.822l.135-.417c-2.71-.252-2.757-1.167-5.114-11.378" transform="translate(-72.293 -62.166)" fill="currentColor"/><path d="M309.513,122.311h-5.44l-.134.416c1.363.127,2.363.875,2.369,2.045V133.4l-10.39-11.093h-4.242l-.135.415a2.612,2.612,0,0,1,2.084,1.106v10.536c-.014,1.157-.983,1.819-2.338,1.947l.134.415h5.44l.134-.415c-1.362-.127-2.334-.8-2.34-1.968.042-5.623.048-8.164.093-9.852l11.033,12.237h1.448v-2.246l.022-.029.026-.007v-9.7c.014-1.157,1.015-1.9,2.37-2.025Z" transform="translate(-148.053 -62.167)" fill="currentColor"/><path d="M101.039,127.353c0,3.225,2.944,5.648,6.971,5.648s6.971-2.422,6.971-5.648-2.943-5.649-6.971-5.649-6.971,2.424-6.971,5.649m11.154.039c0,2.934-1.633,4.631-4.183,4.631s-4.183-1.7-4.183-4.631,1.633-4.711,4.183-4.711,4.183,1.776,4.183,4.711" transform="translate(-51.355 -61.858)" fill="currentColor"/><path d="M209.647,135.42a9.311,9.311,0,0,0,4.932,1.212c3.221,0,6.351-1.452,6.351-4.8,0-6.362-10.551-3-10.551-6.627,0-1.585,1.864-2.417,3.911-2.417a5.45,5.45,0,0,1,5.18,3.8h.419l.064-4.543h-.366l-1.021.817a9.38,9.38,0,0,0-4.355-1.069c-2.989,0-5.775,1.52-5.775,4.067,0,6.021,10.514,2.087,10.514,6.887,0,1.85-1.761,2.9-4.281,2.9a6.7,6.7,0,0,1-6.174-4.5l-.369.207v5.117h.44Z" transform="translate(-105.785 -61.906)" fill="currentColor"/><path d="M256.785,121.7c-4.028,0-6.971,2.424-6.971,5.649S252.757,133,256.785,133s6.971-2.422,6.971-5.648-2.943-5.649-6.971-5.649m0,10.319c-2.55,0-4.183-1.7-4.183-4.631s1.633-4.711,4.183-4.711,4.183,1.776,4.183,4.711-1.633,4.631-4.183,4.631" transform="translate(-126.973 -61.858)" fill="currentColor"/><path d="M135.025,166.073a.981.981,0,0,1,.953,1v1.913h-5.869v-1.921a.983.983,0,0,1,.953-.995v-.218h-3.3v.22a.982.982,0,0,1,.954,1l0,0v5.953l0,0a.982.982,0,0,1-.954,1v.217h3.3v-.219a.983.983,0,0,1-.953-.995v-3.1h5.869v3.095a.982.982,0,0,1-.953,1v.217h3.3v-.219a.982.982,0,0,1-.953-.995v-5.959a.981.981,0,0,1,.953-.995v-.217h-3.3Z" transform="translate(-64.938 -84.298)" fill="currentColor"/><path d="M157.6,166.074a.981.981,0,0,1,.953,1v5.947a.982.982,0,0,1-.953,1v.217h3.3v-.219a.983.983,0,0,1-.953-.995v-5.96a.982.982,0,0,1,.953-.994v-.217h-3.3Z" transform="translate(-80.101 -84.3)" fill="currentColor"/><path d="M203.421,172.921v0l-2.929-4.136c.828-.817,1.4-1.367,1.844-1.778a3.355,3.355,0,0,1,1.569-.94v-.217h-3.384v.218c.405.072.574.231.574.417,0,.328-.467.742-.622.91l-3.186,3.114v-3.447a.982.982,0,0,1,.953-.995v-.217h-3.3v.218a.983.983,0,0,1,.954,1v5.947a.982.982,0,0,1-.954,1v.217h3.3v-.218a.982.982,0,0,1-.953-.995v-1.049l2.2-2.19,2.28,3.283c.346.581.005.869-.5.952v.217h3.718v-.218a2.546,2.546,0,0,1-1.565-1.1" transform="translate(-99.081 -84.299)" fill="currentColor"/><path d="M102.955,166.075c.32.052.781.166.6.7-.433,1.264-2.006,4.955-2.006,4.955l-2.21-5.873h-.968l-2.179,5.791s-1.547-3.628-1.973-4.872c-.183-.534.278-.648.6-.7v-.218H91.782v.218a1.344,1.344,0,0,1,1.026.852l3,7.311h.724l2.32-6.481,2.319,6.481h.725l3-7.311a1.345,1.345,0,0,1,1.025-.852v-.218h-2.966Z" transform="translate(-46.65 -84.3)" fill="currentColor"/><path d="M225.993,166.074c.387.069.567.215.567.451,0,.528-1.077,1.728-2.456,3.231-.065-.072-.127-.142-.181-.205-1.339-1.59-2.255-2.54-2.255-3.014,0-.275.2-.4.619-.463v-.218h-3.549v.217a2.763,2.763,0,0,1,1.662,1.154c.771.891,1.786,2.193,2.926,3.567v2.229a.983.983,0,0,1-.955,1v.217h3.24v-.22a.982.982,0,0,1-.954-.994v-2.4c2.836-3.429,3.593-4.319,4.529-4.557v-.217h-3.192Z" transform="translate(-111.178 -84.3)" fill="currentColor"/><path d="M173.516,167.915c0-.77.9-1.234,1.924-1.234a3.179,3.179,0,0,1,2.032.7.934.934,0,0,1,.052.3.817.817,0,0,1-.1.4l.152.1,1.215-1.848-.162-.1a.884.884,0,0,1-.519.215,5.551,5.551,0,0,0-2.6-.755c-1.848,0-3.24.975-3.24,2.379,0,3.078,5.726,1.429,5.726,3.624,0,1.023-1.033,1.494-2.217,1.494a3.808,3.808,0,0,1-3.163-1.386c0-.014,0-.029,0-.043a2.56,2.56,0,0,1,.1-.782l-.153-.109s-1.381,2.11-1.416,2.11l.156.094a1,1,0,0,1,.541-.189.7.7,0,0,1,.194.028,5.4,5.4,0,0,0,3.6,1.308c1.834,0,3.6-.9,3.6-2.707,0-3.532-5.724-1.916-5.724-3.591" transform="translate(-86.99 -84.213)" fill="currentColor"/><path d="M164.247,95.888,162.98,97.5h3.5l-1.486-1.64V88.423l9.992,9.07h1.552V88.2l1.223-1.62h-3.389l1.409,1.639.081,6.82-8.488-7.667.37-.793H162.97l1.277,1.189Z" transform="translate(-82.832 -44.008)" fill="currentColor"/><path d="M105.518,148.38l.519,1.04c2.138-1.624,6.439.513,9.826-1.436l-.519-1.042c-3.388,1.951-7.689-.188-9.826,1.438" transform="translate(-53.632 -74.686)" fill="currentColor"/><path d="M254.291,148.38l.521,1.04c2.138-1.624,6.439.513,9.826-1.436l-.521-1.042c-3.387,1.951-7.688-.188-9.826,1.438" transform="translate(-129.248 -74.686)" fill="currentColor"/></g></svg>